<mxfile host="65bd71144e">
    <diagram id="jYNg2Ut7qHOQovBjwWCO" name="Page-1">
        <mxGraphModel dx="1175" dy="628" grid="1" gridSize="10" guides="1" tooltips="1" connect="1" arrows="1" fold="1" page="1" pageScale="1" pageWidth="850" pageHeight="1100" background="#ffffff" math="0" shadow="0">
            <root>
                <mxCell id="0"/>
                <mxCell id="1" parent="0"/>
                <mxCell id="7" style="edgeStyle=orthogonalEdgeStyle;rounded=0;html=1;exitX=0;exitY=0.75;exitDx=0;exitDy=0;exitPerimeter=0;entryX=1;entryY=0.75;entryDx=0;entryDy=0;fontSize=14;fontColor=#000000;strokeColor=#000000;startArrow=none;" edge="1" parent="1" source="8" target="3">
                    <mxGeometry relative="1" as="geometry"/>
                </mxCell>
                <mxCell id="2" value="bolt-python&lt;br&gt;lambda-function" style="sketch=0;points=[[0,0,0],[0.25,0,0],[0.5,0,0],[0.75,0,0],[1,0,0],[0,1,0],[0.25,1,0],[0.5,1,0],[0.75,1,0],[1,1,0],[0,0.25,0],[0,0.5,0],[0,0.75,0],[1,0.25,0],[1,0.5,0],[1,0.75,0]];outlineConnect=0;fontColor=#000000;gradientColor=#F78E04;gradientDirection=north;fillColor=#D05C17;strokeColor=#ffffff;dashed=0;verticalLabelPosition=bottom;verticalAlign=top;align=center;html=1;fontSize=14;fontStyle=0;aspect=fixed;shape=mxgraph.aws4.resourceIcon;resIcon=mxgraph.aws4.lambda;" vertex="1" parent="1">
                    <mxGeometry x="700" y="171" width="78" height="78" as="geometry"/>
                </mxCell>
                <mxCell id="4" style="edgeStyle=orthogonalEdgeStyle;html=1;fontSize=14;fontColor=#000000;strokeColor=#000000;rounded=0;" edge="1" parent="1" source="3">
                    <mxGeometry relative="1" as="geometry">
                        <mxPoint x="700" y="192" as="targetPoint"/>
                        <Array as="points">
                            <mxPoint x="700" y="192"/>
                        </Array>
                    </mxGeometry>
                </mxCell>
                <mxCell id="5" value="Request URL" style="edgeLabel;html=1;align=center;verticalAlign=middle;resizable=0;points=[];fontSize=14;fontColor=#FFFFFF;labelBackgroundColor=default;" vertex="1" connectable="0" parent="4">
                    <mxGeometry x="0.3084" relative="1" as="geometry">
                        <mxPoint x="-42" y="-1" as="offset"/>
                    </mxGeometry>
                </mxCell>
                <mxCell id="3" value="Slack App&#10;Slash Command" style="shape=image;verticalLabelPosition=bottom;labelBackgroundColor=none;verticalAlign=top;aspect=fixed;imageAspect=0;image=data:image/svg+xml,PHN2ZyB4bWxucz0iaHR0cDovL3d3dy53My5vcmcvMjAwMC9zdmciIGVuYWJsZS1iYWNrZ3JvdW5kPSJuZXcgMCAwIDI0NDcuNiAyNDUyLjUiIHZpZXdCb3g9IjAgMCAyNDQ3LjYgMjQ1Mi41Ij48ZyBjbGlwLXJ1bGU9ImV2ZW5vZGQiIGZpbGwtcnVsZT0iZXZlbm9kZCI+PHBhdGggZD0ibTg5Ny40IDBjLTEzNS4zLjEtMjQ0LjggMTA5LjktMjQ0LjcgMjQ1LjItLjEgMTM1LjMgMTA5LjUgMjQ1LjEgMjQ0LjggMjQ1LjJoMjQ0Ljh2LTI0NS4xYy4xLTEzNS4zLTEwOS41LTI0NS4xLTI0NC45LTI0NS4zLjEgMCAuMSAwIDAgMG0wIDY1NGgtNjUyLjZjLTEzNS4zLjEtMjQ0LjkgMTA5LjktMjQ0LjggMjQ1LjItLjIgMTM1LjMgMTA5LjQgMjQ1LjEgMjQ0LjcgMjQ1LjNoNjUyLjdjMTM1LjMtLjEgMjQ0LjktMTA5LjkgMjQ0LjgtMjQ1LjIuMS0xMzUuNC0xMDkuNS0yNDUuMi0yNDQuOC0yNDUuM3oiIGZpbGw9IiMzNmM1ZjAiLz48cGF0aCBkPSJtMjQ0Ny42IDg5OS4yYy4xLTEzNS4zLTEwOS41LTI0NS4xLTI0NC44LTI0NS4yLTEzNS4zLjEtMjQ0LjkgMTA5LjktMjQ0LjggMjQ1LjJ2MjQ1LjNoMjQ0LjhjMTM1LjMtLjEgMjQ0LjktMTA5LjkgMjQ0LjgtMjQ1LjN6bS02NTIuNyAwdi02NTRjLjEtMTM1LjItMTA5LjQtMjQ1LTI0NC43LTI0NS4yLTEzNS4zLjEtMjQ0LjkgMTA5LjktMjQ0LjggMjQ1LjJ2NjU0Yy0uMiAxMzUuMyAxMDkuNCAyNDUuMSAyNDQuNyAyNDUuMyAxMzUuMy0uMSAyNDQuOS0xMDkuOSAyNDQuOC0yNDUuM3oiIGZpbGw9IiMyZWI2N2QiLz48cGF0aCBkPSJtMTU1MC4xIDI0NTIuNWMxMzUuMy0uMSAyNDQuOS0xMDkuOSAyNDQuOC0yNDUuMi4xLTEzNS4zLTEwOS41LTI0NS4xLTI0NC44LTI0NS4yaC0yNDQuOHYyNDUuMmMtLjEgMTM1LjIgMTA5LjUgMjQ1IDI0NC44IDI0NS4yem0wLTY1NC4xaDY1Mi43YzEzNS4zLS4xIDI0NC45LTEwOS45IDI0NC44LTI0NS4yLjItMTM1LjMtMTA5LjQtMjQ1LjEtMjQ0LjctMjQ1LjNoLTY1Mi43Yy0xMzUuMy4xLTI0NC45IDEwOS45LTI0NC44IDI0NS4yLS4xIDEzNS40IDEwOS40IDI0NS4yIDI0NC43IDI0NS4zeiIgZmlsbD0iI2VjYjIyZSIvPjxwYXRoIGQ9Im0wIDE1NTMuMmMtLjEgMTM1LjMgMTA5LjUgMjQ1LjEgMjQ0LjggMjQ1LjIgMTM1LjMtLjEgMjQ0LjktMTA5LjkgMjQ0LjgtMjQ1LjJ2LTI0NS4yaC0yNDQuOGMtMTM1LjMuMS0yNDQuOSAxMDkuOS0yNDQuOCAyNDUuMnptNjUyLjcgMHY2NTRjLS4yIDEzNS4zIDEwOS40IDI0NS4xIDI0NC43IDI0NS4zIDEzNS4zLS4xIDI0NC45LTEwOS45IDI0NC44LTI0NS4ydi02NTMuOWMuMi0xMzUuMy0xMDkuNC0yNDUuMS0yNDQuNy0yNDUuMy0xMzUuNCAwLTI0NC45IDEwOS44LTI0NC44IDI0NS4xIDAgMCAwIC4xIDAgMCIgZmlsbD0iI2UwMWU1YSIvPjwvZz48L3N2Zz4=;fontColor=#000000;" vertex="1" parent="1">
                    <mxGeometry x="290" y="170" width="79.85" height="80" as="geometry"/>
                </mxCell>
                <mxCell id="6" value="&lt;font color=&quot;#000000&quot;&gt;/hello-bolt-python-lambda&lt;/font&gt;" style="text;html=1;align=center;verticalAlign=middle;resizable=0;points=[];autosize=1;strokeColor=#99004D;fillColor=none;fontSize=14;fontColor=#FFFFFF;" vertex="1" parent="1">
                    <mxGeometry x="60" y="242" width="170" height="20" as="geometry"/>
                </mxCell>
                <mxCell id="11" style="edgeStyle=orthogonalEdgeStyle;rounded=0;html=1;entryX=0;entryY=0.5;entryDx=0;entryDy=0;fontSize=14;fontColor=#CC0000;strokeColor=#000000;" edge="1" parent="1" source="9" target="3">
                    <mxGeometry relative="1" as="geometry"/>
                </mxCell>
                <mxCell id="9" value="" style="sketch=0;html=1;dashed=0;whitespace=wrap;fillColor=#2875E2;strokeColor=#ffffff;points=[[0.005,0.63,0],[0.1,0.2,0],[0.9,0.2,0],[0.5,0,0],[0.995,0.63,0],[0.72,0.99,0],[0.5,1,0],[0.28,0.99,0]];shape=mxgraph.kubernetes.icon;prIcon=user;labelBackgroundColor=default;fontSize=14;fontColor=#CC0000;" vertex="1" parent="1">
                    <mxGeometry x="120" y="186" width="50" height="48" as="geometry"/>
                </mxCell>
                <mxCell id="8" value="&lt;font color=&quot;#cc0000&quot;&gt;respose to slack&lt;/font&gt;&lt;br&gt;ack()&lt;br&gt;say()" style="text;html=1;align=center;verticalAlign=middle;resizable=0;points=[];autosize=1;strokeColor=#006666;fillColor=none;fontSize=14;fontColor=#000000;" vertex="1" parent="1">
                    <mxGeometry x="490" y="232" width="120" height="60" as="geometry"/>
                </mxCell>
                <mxCell id="12" value="" style="edgeStyle=orthogonalEdgeStyle;rounded=0;html=1;exitX=0;exitY=0.75;exitDx=0;exitDy=0;exitPerimeter=0;entryX=1;entryY=0.75;entryDx=0;entryDy=0;fontSize=14;fontColor=#000000;strokeColor=#000000;endArrow=none;" edge="1" parent="1" source="2" target="8">
                    <mxGeometry relative="1" as="geometry">
                        <mxPoint x="699.9999999999998" y="229.5" as="sourcePoint"/>
                        <mxPoint x="369.85000000000014" y="229.9999999999999" as="targetPoint"/>
                    </mxGeometry>
                </mxCell>
            </root>
        </mxGraphModel>
    </diagram>
</mxfile>